<svg xmlns="http://www.w3.org/2000/svg" xmlns:xlink="http://www.w3.org/1999/xlink" width="80" height="68.738">
    <defs>
        <linearGradient id="a" gradientUnits="userSpaceOnUse" x1="10.967" y1="44.246" x2="195" y2="44.246">
            <stop offset="0" stop-color="#ef4343"/>
            <stop offset="1" stop-color="#ffc741"/>
        </linearGradient>
        <linearGradient xlink:href="#a" id="t" gradientUnits="userSpaceOnUse" x1="129" y1="210.316" x2="371"
                        y2="210.316"/>
        <linearGradient xlink:href="#a" id="s" gradientUnits="userSpaceOnUse" x1="129" y1="210.316" x2="371"
                        y2="210.316"/>
        <linearGradient xlink:href="#a" id="q" gradientUnits="userSpaceOnUse" x1="129" y1="210.316" x2="371"
                        y2="210.316"/>
        <linearGradient xlink:href="#a" id="w" gradientUnits="userSpaceOnUse" x1="129" y1="210.316" x2="371"
                        y2="210.316"/>
        <linearGradient xlink:href="#a" id="v" gradientUnits="userSpaceOnUse" x1="129" y1="210.316" x2="371"
                        y2="210.316"/>
        <linearGradient xlink:href="#a" id="c" gradientUnits="userSpaceOnUse" x1="192.264" y1="333.152" x2="267.659"
                        y2="333.152"/>
        <linearGradient xlink:href="#a" id="d" gradientUnits="userSpaceOnUse" x1="256.243" y1="361.154" x2="324.323"
                        y2="361.154"/>
        <linearGradient xlink:href="#a" id="j" gradientUnits="userSpaceOnUse" x1="202.722" y1="328.839" x2="322.565"
                        y2="328.839"/>
        <linearGradient xlink:href="#a" id="i" gradientUnits="userSpaceOnUse" x1="202.722" y1="328.839" x2="322.565"
                        y2="328.839"/>
        <linearGradient xlink:href="#a" id="g" gradientUnits="userSpaceOnUse" x1="202.722" y1="328.839" x2="322.565"
                        y2="328.839"/>
        <linearGradient xlink:href="#a" id="n" gradientUnits="userSpaceOnUse" x1="202.722" y1="328.839" x2="322.565"
                        y2="328.839"/>
        <linearGradient xlink:href="#a" id="m" gradientUnits="userSpaceOnUse" x1="202.722" y1="328.839" x2="322.565"
                        y2="328.839"/>
        <linearGradient xlink:href="#a" id="k" gradientUnits="userSpaceOnUse" x1="202.722" y1="328.839" x2="322.565"
                        y2="328.839"/>
        <linearGradient xlink:href="#a" id="f" gradientUnits="userSpaceOnUse" x1="202.722" y1="328.839" x2="322.565"
                        y2="328.839"/>
        <linearGradient xlink:href="#a" id="o" gradientUnits="userSpaceOnUse" x1="175.677" y1="264.302" x2="243.754"
                        y2="264.302"/>
        <linearGradient xlink:href="#a" id="p" gradientUnits="userSpaceOnUse" x1="232.341" y1="292.309" x2="307.732"
                        y2="292.309"/>
        <clipPath id="e">
            <path d="M0 500h500V0H0z"/>
        </clipPath>
        <clipPath id="h">
            <path d="M202.722 388.853h64.937V268.825h-64.937z"/>
        </clipPath>
        <clipPath id="l">
            <path d="M256.242 388.11h66.323v-64.37h-66.323z"/>
        </clipPath>
        <clipPath id="r">
            <path d="M177.422 301.727h66.332v-64.398h-66.332z"/>
        </clipPath>
        <clipPath id="u">
            <path d="M232.341 356.631h64.936V236.584h-64.936z"/>
        </clipPath>
        <filter height="1" width="1" y="0" x="0" id="b" color-interpolation-filters="sRGB">
            <feGaussianBlur stdDeviation="4 4" result="blur"/>
            <feColorMatrix values="1 0 0 0 0 0 1 0 0 0 0 0 1 0 0 0 0 0 50 0" result="colormatrix"/>
            <feComposite in="colormatrix" in2="SourceGraphic" operator="in"/>
        </filter>
    </defs>
    <g transform="matrix(0 .46243 -.46243 0 184.617 -81.239)" stroke-width=".763" filter="url(#b)">
        <path d="M238.957 398.525c-11.704-1.717-22.311-7.045-30.674-15.406-10.33-10.332-16.019-24.066-16.019-38.672 0-14.606 5.689-28.34 16.019-38.67l34.422-34.421a14.539 14.539 0 0110.338-4.28c3.902 0 7.572 1.52 10.341 4.282 5.7 5.704 5.7 14.982-.001 20.682l-34.419 34.418c-4.805 4.805-7.451 11.193-7.451 17.989 0 6.798 2.646 13.187 7.45 17.99 3.193 3.193 7.225 5.479 11.659 6.612l3.144.801c-.006 8.352-.01 21.223-.012 24.534l-.003 4.845z"
              fill="url(#c)"/>
        <path d="M256.243 368.258l2.286-1.164a25.328 25.328 0 006.418-4.656l34.416-34.419a14.54 14.54 0 0110.341-4.279h.001c3.904 0 7.577 1.52 10.341 4.281 5.702 5.701 5.702 14.977 0 20.68l-34.419 34.418c-6.646 6.645-14.975 11.483-24.086 13.99l-5.298 1.458z"
              fill="url(#d)"/>
        <g clip-path="url(#e)" fill="url(#f)">
            <g clip-path="url(#h)" opacity=".3" fill="url(#i)">
                <path d="M264.386 290.932c-.313.382-.647.753-1.003 1.109l-34.419 34.417c-4.805 4.805-7.45 11.193-7.45 17.989 0 6.798 2.645 13.187 7.449 17.99.399.4.81.785 1.235 1.155a25.424 25.424 0 0010.424 5.457l3.141.801-.009 13.967-.007 5.036-4.951-.924a44.02 44.02 0 01-23.135-12.201c-17.252-17.254-17.252-45.331.001-62.587l44.32-44.316a14.65 14.65 0 012.044 1.35l.37.319.045.011c.323.272.641.552.943.853 5.345 5.347 5.678 13.836 1.002 19.574"
                      fill="url(#j)"/>
            </g>
            <g clip-path="url(#l)" opacity=".3" fill="url(#m)">
                <path d="M300.472 327.021c.415-.34.849-.647 1.296-.938a14.524 14.524 0 017.935-2.343h.002c3.899 0 7.566 1.517 10.328 4.27l.035.035a14.596 14.596 0 012.497 3.366l-44.316 44.318a43.862 43.862 0 01-16.413 10.389l-5.594 1.992v-19.852l2.286-1.164a25.291 25.291 0 006.419-4.656l34.416-34.418c.346-.346.705-.671 1.078-.976l.031-.023"
                      fill="url(#n)"/>
            </g>
        </g>
        <path d="M179.951 297.444c-5.698-5.699-5.699-14.976 0-20.681l34.418-34.415a54.586 54.586 0 0124.085-14.014l5.3-1.458v30.343l-2.282 1.166a25.386 25.386 0 00-6.424 4.644l-34.416 34.416a14.528 14.528 0 01-10.339 4.282 14.532 14.532 0 01-10.342-4.283"
              fill="url(#o)"/>
        <path d="M236.611 354.104c-5.694-5.7-5.694-14.974.002-20.677l34.42-34.419c4.805-4.804 7.452-11.193 7.452-17.991 0-6.796-2.647-13.185-7.453-17.992a25.315 25.315 0 00-11.638-6.622l-3.151-.805V226.23l4.791.699c11.689 1.703 22.297 7.035 30.678 15.419 10.33 10.331 16.02 24.063 16.02 38.669 0 14.607-5.69 28.339-16.02 38.672l-34.416 34.415a14.522 14.522 0 01-10.34 4.284 14.54 14.54 0 01-10.345-4.284"
              fill="url(#p)"/>
        <g clip-path="url(#r)" opacity=".3" fill="url(#s)">
            <path d="M241.472 258.386c-2.417 1.236-4.578 2.797-6.424 4.643l-34.415 34.417a14.535 14.535 0 01-10.34 4.281c-.482 0-.961-.025-1.435-.071-.161-.015-.317-.046-.476-.068-.312-.04-.623-.077-.929-.137-.184-.035-.364-.09-.547-.133-.275-.065-.552-.124-.822-.205-.19-.057-.374-.13-.562-.195-.254-.088-.512-.171-.763-.273-.188-.077-.37-.17-.555-.256-.24-.11-.483-.216-.718-.339-.184-.097-.36-.209-.54-.314-.225-.132-.454-.259-.673-.403-.177-.117-.347-.249-.522-.375-.208-.152-.42-.299-.622-.461-.172-.14-.335-.292-.502-.439-.228-.202-.46-.397-.677-.614a14.558 14.558 0 01-2.528-3.409l44.325-44.323c4.685-4.685 10.207-8.179 16.412-10.39l5.595-1.993v19.89z"
                  fill="url(#t)"/>
        </g>
        <g clip-path="url(#u)" opacity=".3" fill="url(#v)">
            <path d="M278.485 281.017c0-6.796-2.647-13.185-7.453-17.992a25.312 25.312 0 00-11.637-6.622l-3.153-.804v-19.015l4.957.925c8.796 1.642 16.797 5.862 23.139 12.204 17.252 17.254 17.252 45.329 0 62.584l-44.339 44.334a14.746 14.746 0 01-3.388-2.527 15.48 15.48 0 01-.856-.948c-.046-.056-.101-.107-.147-.162-.216-.268-.411-.55-.607-.829-.084-.12-.18-.234-.26-.355-.154-.234-.285-.479-.424-.719-.102-.177-.216-.348-.31-.528-.101-.191-.181-.391-.272-.587-.111-.236-.231-.47-.329-.712-.059-.146-.101-.297-.156-.446-.108-.297-.222-.591-.311-.893-.037-.126-.058-.253-.092-.38-.087-.329-.176-.658-.241-.991-.021-.111-.029-.224-.047-.335-.06-.351-.119-.703-.152-1.056-.012-.125-.01-.249-.018-.375-.024-.342-.048-.684-.048-1.026 0-.213.021-.424.03-.637.011-.254.013-.51.037-.764.035-.37.096-.738.158-1.107.017-.094.024-.189.042-.283a14.555 14.555 0 014.004-7.544l34.421-34.419c4.805-4.804 7.452-11.193 7.452-17.991"
                  fill="url(#w)"/>
        </g>
    </g>
</svg>
