<svg width="204" height="182" viewBox="0 0 204 182" fill="none" xmlns="http://www.w3.org/2000/svg">
<g filter="url(#filter0_d)">
<path d="M199.742 93.6601C199.726 93.3478 199.685 92.9123 199.636 92.4357C199.595 91.9755 199.545 91.4907 199.496 90.9812C199.381 89.9623 199.267 88.853 199.135 87.6615C198.766 85.4182 198.446 82.838 197.79 79.9948C196.592 74.3003 194.631 67.4717 191.39 60.0762C188.182 52.6807 183.572 44.7922 177.418 37.1255C171.216 29.5163 163.463 22.1208 154.093 16.0647C144.757 10.0004 133.927 5.13577 122.187 2.47339C116.32 1.1422 110.257 0.328689 104.121 0.0903896L101.823 0L99.5098 0.0164345L97.1961 0.0410862H96.6957L96.4331 0.0575207L95.9081 0.0903896L94.8415 0.156127C92.2161 0.287603 88.6636 0.632727 85.628 1.08468C73.2968 2.90068 61.2036 7.1983 50.4805 13.616C39.7328 20.0254 30.3716 28.5138 23.0534 38.2102C15.7269 47.9065 10.4433 58.7779 7.40765 69.8054C4.37204 80.8247 3.45315 91.9755 4.3064 102.214C5.03659 112.601 7.62917 122.092 11.0258 130.342C14.4388 138.6 18.7461 145.593 23.1518 151.271C27.5576 156.957 32.0535 161.313 35.9096 164.682C37.9032 166.284 39.618 167.796 41.267 168.905C42.8833 170.048 44.2206 171.083 45.402 171.773C47.7075 173.219 48.9463 174 48.9463 174C48.9463 174 47.7731 173.137 45.5743 171.518C43.4002 169.891 40.3153 167.352 36.689 163.827C33.1365 160.236 29.0425 155.643 25.1701 149.817C21.2976 143.999 17.6467 136.957 14.9639 128.863C12.2974 120.785 10.5253 111.631 10.5499 102.009C10.4351 92.2878 12.0595 82.1888 15.53 72.3774C19.0004 62.5907 24.4727 53.2148 31.5613 45.1208C38.6416 37.0269 47.3629 30.2477 56.9784 25.4323C66.5857 20.5924 77.0626 17.741 87.4576 16.985C88.7785 16.8289 89.9681 16.8618 91.2152 16.796C92.3556 16.7139 93.857 16.7549 95.2681 16.7714L96.3265 16.7796L96.8598 16.7878H97.1223C96.7449 16.796 97.0895 16.796 97.0321 16.8042L97.1551 16.8125L99.0749 16.9357L100.987 17.059L102.874 17.2808C107.919 17.8478 112.817 18.875 117.486 20.3048C126.847 23.148 135.215 27.7085 142.246 33.0497C149.318 38.3745 154.947 44.6442 159.311 50.8729C163.635 57.1673 166.72 63.4453 168.722 69.2302C170.756 75.0069 171.839 80.2249 172.422 84.5389C172.766 86.6918 172.84 88.6393 173.013 90.3157C173.037 91.0881 173.054 91.803 173.07 92.4604C173.086 92.789 173.095 93.1013 173.111 93.3971C173.127 93.6765 173.136 93.9641 173.127 94.3339C173.095 97.062 173.078 98.5165 173.078 98.5165L186.542 98.1796L199.997 97.8344C199.997 97.8344 199.906 96.38 199.742 93.6601Z" fill="url(#paint0_linear)"/>
</g>
<defs>
<filter id="filter0_d" x="0.00292969" y="0" width="203.994" height="182" filterUnits="userSpaceOnUse" color-interpolation-filters="sRGB">
<feFlood flood-opacity="0" result="BackgroundImageFix"/>
<feColorMatrix in="SourceAlpha" type="matrix" values="0 0 0 0 0 0 0 0 0 0 0 0 0 0 0 0 0 0 127 0"/>
<feOffset dy="4"/>
<feGaussianBlur stdDeviation="2"/>
<feColorMatrix type="matrix" values="0 0 0 0 0 0 0 0 0 0 0 0 0 0 0 0 0 0 0.25 0"/>
<feBlend mode="normal" in2="BackgroundImageFix" result="effect1_dropShadow"/>
<feBlend mode="normal" in="SourceGraphic" in2="effect1_dropShadow" result="shape"/>
</filter>
<linearGradient id="paint0_linear" x1="4.00253" y1="86.9975" x2="199.998" y2="86.9975" gradientUnits="userSpaceOnUse">
<stop stop-color="#F04D6B"/>
<stop offset="0.439216" stop-color="#F5A623"/>
<stop offset="1" stop-color="#71AC37"/>
</linearGradient>
</defs>
</svg>
