<?xml version="1.0" standalone="no"?>
<!DOCTYPE svg PUBLIC "-//W3C//DTD SVG 20010904//EN"
 "http://www.w3.org/TR/2001/REC-SVG-20010904/DTD/svg10.dtd">
<svg version="1.0" xmlns="http://www.w3.org/2000/svg"
 width="3200.000000pt" height="3200.000000pt" viewBox="0 0 3200.000000 3200.000000"
 preserveAspectRatio="xMidYMid meet">
<metadata>
Created by potrace 1.11, written by Peter Selinger 2001-2013
</metadata>
<g transform="translate(0.000000,3200.000000) scale(0.100000,-0.100000)"
fill="#000000" stroke="none">
<path d="M20527 29544 c-1 -1 -36 -5 -77 -8 -121 -11 -164 -16 -186 -21 -12
-3 -39 -7 -60 -10 -64 -10 -277 -64 -371 -94 -366 -117 -733 -340 -1019 -617
-172 -167 -295 -324 -442 -559 -36 -59 -129 -244 -165 -330 -216 -518 -260
-1125 -122 -1675 100 -396 287 -759 555 -1077 23 -26 1500 -1508 3284 -3293
1783 -1785 3273 -3281 3312 -3325 57 -65 171 -202 207 -250 65 -86 128 -174
165 -230 25 -38 62 -96 83 -127 73 -111 124 -204 296 -538 69 -135 127 -247
129 -249 2 -2 5277 -4 5487 -2 27 1 46 5 43 9 -4 7 -30 97 -61 217 -7 28 -39
142 -70 255 -31 113 -61 219 -65 235 -96 369 -274 933 -368 1160 -11 28 -44
109 -72 180 -111 278 -197 468 -356 780 -95 187 -149 287 -285 523 -67 117
-194 321 -265 426 -10 16 -23 36 -29 44 -113 177 -358 511 -544 742 -68 85
-127 157 -130 160 -3 3 -49 55 -101 115 -90 105 -115 133 -255 284 -171 186
-6586 6590 -6675 6665 -92 77 -256 192 -360 253 -65 39 -256 132 -336 164
-175 70 -457 147 -604 164 -30 4 -57 8 -60 10 -16 10 -472 28 -483 19z"/>
<path d="M10117 26524 c-1 -1 -110 -5 -242 -9 -132 -4 -253 -8 -270 -10 -16
-2 -70 -7 -120 -10 -157 -10 -327 -26 -335 -30 -3 -1 -41 -6 -84 -10 -43 -4
-88 -9 -100 -11 -12 -2 -46 -6 -76 -9 -30 -3 -80 -10 -110 -15 -30 -5 -100
-16 -155 -25 -148 -22 -154 -23 -365 -65 -107 -21 -262 -55 -345 -75 -82 -20
-157 -37 -165 -39 -8 -2 -35 -9 -60 -16 -25 -7 -54 -14 -65 -16 -11 -2 -49
-13 -85 -23 -36 -11 -99 -30 -140 -41 -395 -113 -871 -290 -1310 -487 -108
-49 -492 -241 -594 -297 -66 -36 -121 -66 -122 -66 -6 0 -255 -146 -379 -223
-202 -124 -579 -379 -680 -459 -5 -4 -50 -39 -100 -76 -170 -127 -394 -310
-526 -426 -230 -203 -332 -299 -514 -482 -144 -144 -207 -210 -341 -355 -70
-75 -222 -251 -256 -295 -12 -16 -29 -36 -37 -44 -7 -8 -48 -57 -90 -110 -42
-52 -78 -97 -81 -100 -12 -11 -220 -291 -301 -405 -91 -128 -319 -472 -319
-481 0 -3 -13 -24 -29 -47 -15 -23 -39 -62 -53 -87 -42 -74 -158 -274 -168
-290 -25 -39 -283 -547 -322 -635 -15 -33 -43 -94 -61 -135 -47 -102 -135
-316 -200 -485 -51 -131 -185 -512 -192 -545 -2 -8 -11 -40 -20 -70 -44 -142
-56 -182 -84 -285 -40 -146 -54 -198 -56 -210 -2 -6 -22 -91 -45 -190 -23 -99
-44 -189 -46 -200 -2 -11 -6 -31 -9 -45 -3 -14 -7 -36 -10 -50 -3 -14 -9 -47
-15 -75 -12 -61 -14 -72 -44 -255 -28 -163 -35 -210 -42 -260 -2 -19 -6 -46
-9 -60 -2 -14 -7 -47 -11 -75 -3 -27 -8 -59 -10 -69 -2 -11 -8 -56 -14 -100
-6 -45 -13 -92 -15 -106 -2 -14 -16 -104 -30 -200 -14 -96 -28 -181 -30 -187
-3 -10 83 -13 408 -14 3575 -4 4940 -3 4946 6 7 8 34 111 56 205 1 8 11 44 20
80 16 63 20 78 29 120 56 249 197 679 286 868 17 35 30 65 30 68 0 26 303 583
329 604 3 3 28 39 55 80 43 66 229 317 245 330 4 3 26 30 51 60 169 205 480
501 710 675 36 27 70 53 75 58 43 36 235 163 364 241 391 235 800 405 1241
515 88 23 171 43 183 45 19 3 93 17 162 30 11 2 41 6 66 10 25 4 57 8 70 10
199 31 348 41 654 41 242 0 413 -7 505 -20 14 -2 48 -6 75 -9 28 -4 61 -8 75
-11 14 -2 48 -7 75 -10 28 -3 68 -10 90 -15 22 -5 58 -11 80 -14 63 -10 365
-84 425 -105 14 -5 52 -17 85 -26 64 -19 257 -87 315 -112 19 -8 44 -19 55
-23 334 -139 738 -368 990 -562 108 -83 259 -207 328 -270 45 -40 1539 -1530
3320 -3310 1788 -1787 3280 -3271 3330 -3312 125 -100 250 -186 374 -257 58
-32 106 -59 108 -59 3 0 42 -18 87 -41 198 -97 520 -192 758 -223 212 -29 528
-28 735 0 41 6 228 42 255 49 8 2 42 11 75 19 288 71 630 238 895 437 386 289
666 648 868 1109 85 194 166 519 189 755 15 153 7 591 -12 648 -2 7 -6 28 -9
47 -13 91 -20 123 -47 230 -106 411 -307 794 -579 1102 -66 73 -6420 6430
-6586 6588 -129 123 -199 187 -284 260 -41 36 -77 67 -80 70 -3 3 -59 51 -125
106 -117 98 -148 123 -325 258 -47 36 -89 69 -95 74 -58 48 -532 373 -640 439
-11 6 -78 47 -150 91 -503 305 -1006 554 -1530 757 -261 100 -273 105 -284
105 -6 0 -19 4 -29 10 -27 15 -342 117 -528 170 -175 51 -470 126 -604 155
-262 56 -567 112 -710 130 -25 3 -56 8 -70 10 -26 5 -51 8 -190 25 -218 26
-386 41 -605 55 -157 10 -702 24 -708 19z"/>
<path d="M10188 19215 c-2 -1 -43 -5 -93 -9 -346 -24 -753 -153 -1080 -341
-829 -477 -1338 -1358 -1334 -2310 1 -192 9 -303 34 -440 3 -16 7 -39 9 -50 9
-51 17 -91 22 -107 3 -9 7 -26 9 -38 11 -58 50 -183 92 -297 94 -258 264 -551
445 -768 67 -81 6371 -6396 6629 -6641 206 -195 512 -461 715 -619 56 -44 333
-250 372 -277 18 -13 39 -28 45 -34 33 -28 472 -313 612 -397 287 -170 700
-390 935 -496 504 -229 930 -386 1466 -540 116 -33 392 -104 455 -116 9 -2 34
-8 55 -14 21 -6 40 -8 42 -6 3 2 12 0 21 -4 9 -5 30 -11 46 -14 17 -3 89 -17
160 -31 72 -14 144 -28 160 -31 51 -9 219 -36 245 -40 14 -2 41 -6 60 -9 97
-16 131 -20 235 -31 39 -4 73 -9 76 -11 3 -2 44 -6 90 -9 46 -4 95 -8 108 -10
12 -2 60 -7 105 -10 44 -3 95 -8 111 -10 27 -3 115 -8 385 -20 109 -5 647 -6
725 -1 33 2 123 7 200 11 77 3 156 8 175 10 19 2 69 6 110 9 147 13 185 16
215 21 17 2 62 7 100 10 39 4 77 8 85 10 8 3 40 7 70 10 30 3 66 8 80 10 14 2
86 13 160 25 233 37 357 60 570 106 63 14 123 27 133 29 10 2 26 6 35 9 9 3
28 7 42 10 128 22 845 232 975 285 11 5 72 28 135 51 109 39 190 70 235 90 11
4 56 23 100 40 89 36 88 35 270 116 169 74 446 209 593 288 64 35 144 78 177
96 92 49 236 133 340 197 11 7 40 24 65 39 116 70 493 325 655 444 201 148
353 268 560 443 122 104 181 156 345 307 65 59 325 317 425 421 151 157 295
319 489 549 33 40 138 171 175 220 19 25 55 72 81 105 199 257 465 657 662
995 139 240 175 307 314 590 69 140 129 263 134 272 27 50 214 505 267 648
187 511 372 1171 439 1565 2 17 7 37 9 45 5 18 71 415 80 480 3 25 8 56 10 70
6 34 14 93 20 143 3 23 7 53 10 67 3 14 8 45 11 70 3 25 7 56 9 70 2 14 7 43
10 65 3 22 12 81 20 130 8 50 17 117 20 150 l6 60 -2671 -1 c-1468 0 -2672 -3
-2675 -6 -4 -4 -61 -213 -70 -257 -5 -26 -85 -328 -112 -426 -41 -147 -50
-176 -86 -275 -128 -351 -249 -605 -422 -885 -230 -375 -516 -718 -844 -1015
-46 -41 -88 -80 -95 -86 -39 -36 -235 -186 -334 -257 -269 -190 -558 -352
-857 -480 -126 -53 -356 -139 -405 -151 -9 -2 -54 -15 -100 -30 -144 -43 -412
-105 -525 -121 -387 -56 -441 -60 -770 -60 -237 0 -488 10 -505 20 -3 1 -36 6
-75 9 -38 3 -79 8 -90 10 -11 2 -40 7 -65 11 -136 20 -394 76 -515 110 -33 9
-67 18 -75 20 -8 2 -69 22 -135 43 -602 198 -1158 518 -1639 946 -50 44 -1542
1531 -3316 3305 -1774 1773 -3270 3262 -3324 3307 -123 104 -260 199 -394 275
-57 33 -105 59 -107 59 -1 0 -50 22 -107 50 -129 60 -364 140 -518 173 -110
25 -134 29 -245 43 -27 3 -59 8 -70 11 -22 5 -422 13 -427 8z"/>
<path d="M360 14855 c0 -5 9 -41 20 -80 95 -348 171 -626 180 -655 9 -29 111
-390 125 -440 79 -292 291 -859 458 -1230 267 -592 647 -1250 1005 -1740 34
-47 70 -96 79 -109 59 -82 307 -395 333 -421 3 -3 23 -27 45 -55 22 -27 47
-57 55 -65 8 -9 28 -31 44 -50 40 -50 167 -190 261 -290 115 -122 6540 -6546
6600 -6599 405 -356 919 -586 1445 -647 201 -23 495 -23 640 0 14 3 43 7 65
10 213 28 474 102 679 193 711 314 1236 895 1474 1633 40 124 84 315 97 419 4
30 8 62 10 72 27 138 21 514 -11 712 -2 15 -6 42 -9 60 -74 462 -305 944 -625
1307 -17 19 -1490 1495 -3273 3280 -1784 1785 -3275 3281 -3314 3326 -71 82
-215 260 -243 300 -8 12 -44 64 -80 115 -151 219 -245 381 -424 734 l-117 230
-2759 0 c-1834 0 -2760 -3 -2760 -10z"/>
</g>
</svg>
